# AST/ASF file generated using VICON BodyLanguage
# -----------------------------------------------
:version 1.10
:name VICON
:units
  mass 1.0
  length 0.45
  angle deg
:documentation
   .ast/.asf automatically generated from VICON data using
   VICON BodyBuilder and BodyLanguage model FoxedUp or BRILLIANT.MOD
:root
   order TX TY TZ RX RY RZ
   axis XYZ
   position 0 0 0  
   orientation 0 0 0 
:bonedata
  begin
     id 1 
     name lhipjoint
     direction 0.611804 -0.747784 0.257906 
     length 2.29243 
     axis 0 0 0  XYZ
  end
  begin
     id 2 
     name lfemur
     direction 0.34202 -0.939693 0  
     length 7.31159  
     axis 0 0 20  XYZ
    dof rx ry rz
    limits (-160.0 20.0)
           (-70.0 70.0)
           (-60.0 70.0)
  end
  begin
     id 3 
     name ltibia
     direction 0.34202 -0.939693 0   
     length 7.33391   
     axis 0 0 20   XYZ
    dof rx
    limits (-10.0 170.0)
  end
  begin
     id 4 
     name lfoot
     direction 0.122263 -0.335914 0.933924   
     length 1.76083   
     axis -90 7.62852e-016 20   XYZ
    dof rx rz
    limits (-45.0 90.0)
           (-70.0 20.0)
  end
  begin
     id 5 
     name ltoes
     direction 1.53533e-011 -4.2177e-011 1   
     length 0.879206   
     axis -90 7.62852e-016 20   XYZ
    dof rx
    limits (-90.0 20.0)
  end
  begin
     id 6 
     name rhipjoint
     direction -0.646469 -0.721248 0.248754   
     length 2.37677  
     axis 0 0 0  XYZ 
  end
  begin
     id 7 
     name rfemur
     direction -0.34202 -0.939693 0   
     length 7.18623   
     axis 0 0 -20   XYZ
    dof rx ry rz
    limits (-160.0 20.0)
           (-70.0 70.0)
           (-70.0 60.0)
  end
  begin
     id 8 
     name rtibia
     direction -0.34202 -0.939693 0   
     length 7.36567   
     axis 0 0 -20   XYZ
    dof rx
    limits (-10.0 170.0)
 end
 begin
     id 9 
     name rfoot
     direction -0.126681 -0.348054 0.928876   
     length 1.71902  
     axis -90 -7.62852e-016 -20   XYZ
    dof rx rz
    limits (-45.0 90.0)
           (-20.0 70.0)
  end
  begin
     id 10 
     name rtoes
     direction -1.53551e-011 -4.21898e-011 1   
     length 0.857792   
     axis -90 -7.62852e-016 -20   XYZ
    dof rx
    limits (-90.0 20.0)
  end
  begin
     id 11 
     name lowerback
     direction 0.0106509 0.999778 0.0181844   
     length 2.07668   
     axis 0 0 0   XYZ
    dof rx ry rz
    limits (-20.0 45.0)
           (-30.0 30.0)
           (-30.0 30.0)
  end
  begin
     id 12 
     name upperback
     direction -0.00456018 0.999989 -0.000590935   
     length 2.08011   
     axis 0 0 0   XYZ
    dof rx ry rz
    limits (-20.0 45.0)
           (-30.0 30.0)
           (-30.0 30.0)
  end
  begin
     id 13 
     name thorax
     direction -0.00910382 0.999916 -0.00923765   
     length 2.07397   
     axis 0 0 0   XYZ
    dof rx ry rz
    limits (-20.0 45.0)
           (-30.0 30.0)
           (-30.0 30.0)
  end
  begin
     id 14 
     name lowerneck
     direction 0.00171967 0.99778 0.0665733   
     length 1.67556   
     axis 0 0 0   XYZ
    dof rx ry rz
    limits (-20.0 45.0)
           (-30.0 30.0)
           (-30.0 30.0)
  end
  begin
     id 15 
     name upperneck
     direction -0.0143166 0.991302 -0.130828   
     length 1.68462   
     axis 0 0 0   XYZ
    dof rx ry rz
    limits (-20.0 45.0)
           (-30.0 30.0)
           (-30.0 30.0)
  end
  begin
     id 16
     name head
     direction -0.00606378 0.998665 -0.0512995  
     length 1.69269  
     axis 0 0 0   XYZ
    dof rx ry rz
    limits (-20.0 45.0)
           (-30.0 30.0)
           (-30.0 30.0)
  end
  begin
     id 17 
     name lclavicle
     direction 0.9638 0.179341 0.197297  
     length 4.12888  
     axis 0 0 0   XYZ
    dof ry rz
    limits (-20.0 10.0)
           (0.0 20.0)
  end
  begin
     id 18 
     name lhumerus
     direction 1 -4.48972e-011 -2.47351e-027   
     length 5.01834   
     axis -180 -30 -90   XYZ
    dof rx ry rz
    limits (-60.0 90.0)
           (-90.0 90.0)
           (-90.0 90.0)
  end
  begin
     id 19
     name lradius
     direction 1 -4.48965e-011 1.51591e-026   
     length 3.4869   
     axis -180 -30 -90   XYZ
    dof rx
    limits (-10.0 170.0)
  end
  begin
     id 20
     name lwrist
     direction 1 -4.48957e-011 2.70032e-026   
     length 1.74345   
     axis -1.81515e-014 90 90   XYZ
    dof ry
    limits (-180.0 0.0)
 end
  begin
     id 21 
     name lhand
     direction 1 -4.48951e-011 5.40064e-026   
     length 0.76799   
     axis -3.44607e-014 90 90   XYZ
    dof rx rz
    limits (-90.0 90.0)
           (-45.0 45.0)
  end
  begin
     id 22 
     name lfingers
     direction 1 -4.48971e-011 1.08013e-025   
     length 0.619174   
     axis -6.89214e-014 90 90   XYZ
    dof rx
    limits (0.0 90.0)
  end
  begin
     id 23
     name lthumb
     direction 0.707107 -6.34931e-011 0.707107   
     length 0.889013   
     axis -90 45 2.85299e-015   XYZ
    dof rx rz
    limits (-45.0 45.0)
           (-45.0 45.0)
  end
  begin
     id 24 
     name rclavicle
     direction -0.961409 0.252588 0.109054   
     length 4.04305  
     axis 0 0 0   XYZ 
    dof ry rz
    limits (-10.0 20.0)
           (-20.0 0.0)
  end
  begin
     id 25 
     name rhumerus
     direction -1 -4.4897e-011 1.33872e-017  
     length 4.70164   
     axis -180 30 90   XYZ
    dof rx ry rz
    limits (-90.0 60.0)
           (-90.0 90.0)
           (-90.0 90.0)
  end
  begin
     id 26 
     name rradius
     direction -1 -4.48954e-011 1.83844e-026   
     length 3.49911   
     axis -180 30 90   XYZ
    dof rx
    limits (-10.0 170.0)
  end
  begin
     id 27 
     name rwrist
     direction -1 -4.49008e-011 2.70032e-026   
     length 1.74955   
     axis -1.81515e-014 -90 -90   XYZ
    dof ry
    limits (-180.0 0.0)
  end
  begin
     id 28
     name rhand
     direction -1 -4.48916e-011 5.40064e-026   
     length 0.739335   
     axis -3.44607e-014 -90 -90   XYZ
    dof rx rz
    limits (-90.0 90.0)
           (-45.0 45.0)
  end
  begin
     id 29
     name rfingers
     direction -1 -4.48987e-011 1.08013e-025   
     length 0.596071   
     axis -6.89214e-014 -90 -90   XYZ
    dof rx
    limits (0.0 90.0)
  end
  begin
     id 30
     name rthumb
     direction -0.707107 -6.34935e-011 0.707107   
     length 0.855843   
     axis -90 -45 -2.85299e-015   XYZ
    dof rx rz
    limits (-45.0 45.0)
           (-45.0 45.0)
  end
:hierarchy
  begin
    root lhipjoint rhipjoint lowerback
    lhipjoint lfemur
    lfemur ltibia
    ltibia lfoot
    lfoot ltoes
    rhipjoint rfemur
    rfemur rtibia
    rtibia rfoot
    rfoot rtoes
    lowerback upperback
    upperback thorax
    thorax lowerneck lclavicle rclavicle
    lowerneck upperneck
    upperneck head
    lclavicle lhumerus
    lhumerus lradius
    lradius lwrist
    lwrist lhand lthumb
    lhand lfingers
    rclavicle rhumerus
    rhumerus rradius
    rradius rwrist
    rwrist rhand rthumb
    rhand rfingers
  end

#!OML:ASF I:\salsa\salsa 7_09\Patient 1\Session 1\dancermale.ASF
:FULLY-SPECIFIED
:DEGREES
723
root -0.997111 17.062 -2.50133 13.2759 2.23459 358.694
lowerback -0.586487 -4.10944 -3.36926
upperback -1.09573 -5.47877 0.0272142
thorax -0.479752 -2.71849 1.8813
lowerneck -10.4839 -3.86714 -3.56218
upperneck 24.8184 -4.39484 -1.36302
head 9.61865 -2.5404 -0.369724
rclavicle -2.8625e-014 -5.56597e-015
rhumerus -41.8262 36.2795 -106.187
rradius 77.6658
rwrist -15.9172
rhand -45.3479 -12.1195
rfingers 7.12502
rthumb -18.1184 -41.2956
lclavicle -2.8625e-014 -5.56597e-015
lhumerus 11.0583 -4.63689 97.6316
lradius 47.9249
lwrist 74.2119
lhand -15.8045 65.0999
lfingers 7.12502
lthumb 10.3887 -94.8233
rfemur -27.1524 3.54699 6.86492
rtibia 46.8128
rfoot -14.7589 -3.08955
rtoes -17.1943
lfemur -24.8933 7.65986 -7.11665
ltibia 31.5522
lfoot -17.8494 12.9201
ltoes -22.1963
724
root -1.08871 17.0281 -2.61975 13.6109 3.88233 359.227
lowerback -0.601124 -4.27836 -3.97188
upperback -1.14169 -5.70408 -0.162144
thorax -0.467687 -2.82694 2.01664
lowerneck -11.0851 -3.17599 -3.10542
upperneck 24.9834 -3.39741 -1.69923
head 9.76307 -2.07107 -0.461565
rclavicle -5.70512e-014 -3.97569e-015
rhumerus -40.7051 36.9053 -108.533
rradius 75.0733
rwrist -14.5725
rhand -44.5278 -12.4561
rfingers 7.12502
rthumb -17.3292 -41.7035
lclavicle -5.70512e-014 -3.97569e-015
lhumerus 14.1037 -2.82657 99.2288
lradius 44.1229
lwrist 71.1244
lhand -15.6726 65.1547
lfingers 7.12502
lthumb 10.516 -94.8716
rfemur -26.0718 5.06115 6.91637
rtibia 45.0937
rfoot -17.272 -6.17095
rtoes -19.9837
lfemur -26.3691 6.07235 -7.22046
ltibia 31.7436
lfoot -17.3944 12.4324
ltoes -23.3965
725
root -1.19564 16.9932 -2.73854 14.116 5.57248 359.533
lowerback -0.673385 -4.43493 -4.40522
upperback -1.26455 -5.91166 -0.115741
thorax -0.492885 -2.92526 2.29734
lowerneck -11.6263 -2.3961 -2.88936
upperneck 24.9585 -2.24097 -1.98655
head 9.84292 -1.54515 -0.469979
rclavicle 1.66979e-014 7.95139e-016
rhumerus -39.8252 37.8389 -110.668
rradius 72.8153
rwrist -13.3062
rhand -45.6842 -12.3886
rfingers 7.12502
rthumb -18.4419 -41.5344
lclavicle 1.66979e-014 7.95139e-016
lhumerus 16.8225 -1.13816 101.052
lradius 40.9006
lwrist 68.2377
lhand -15.8126 65.1756
lfingers 7.12502
lthumb 10.381 -94.8994
rfemur -25.3402 5.80074 7.33364
rtibia 43.3495
rfoot -19.0338 -9.02972
rtoes -19.8628
lfemur -28.3911 4.89615 -6.9965
ltibia 32.5618
lfoot -17.2494 11.804
ltoes -24.7534
726
root -1.31398 16.9583 -2.85389 14.649 7.13562 359.637
lowerback -0.514226 -4.54936 -4.83012
upperback -1.58606 -6.08072 0.237078
thorax -0.819854 -2.9926 2.91686
lowerneck -11.9727 -1.49095 -2.87688
upperneck 24.8612 -0.848898 -2.36836
head 9.86876 -0.940392 -0.442207
rclavicle 3.24019e-014 -7.95139e-016
rhumerus -39.5022 38.9985 -112.775
rradius 70.3362
rwrist -11.7749
rhand -44.5769 -13.2121
rfingers 7.12502
rthumb -17.3765 -42.4554
lclavicle 3.24019e-014 -7.95139e-016
lhumerus 19.1428 0.919789 103.269
lradius 38.2291
lwrist 65.2016
lhand -15.5167 65.2392
lfingers 7.12502
lthumb 10.6663 -94.9484
rfemur -25.3049 5.72159 8.07959
rtibia 42.501
rfoot -20.4028 -11.5184
rtoes -20.1976
lfemur -30.4317 4.37763 -6.54278
ltibia 33.3973
lfoot -17.252 10.9401
ltoes -25.5073
727
root -1.43876 16.9263 -2.96793 14.9052 8.68596 359.664
lowerback -0.447465 -4.60028 -4.76341
upperback -1.57062 -6.15118 0.311928
thorax -0.83387 -3.0282 2.96056
lowerneck -12.3678 -0.587034 -2.31341
upperneck 24.5951 0.456666 -2.92984
head 9.84858 -0.343023 -0.577076
rclavicle -3.1408e-014 -1.19271e-014
rhumerus -39.6822 41.3218 -115.092
rradius 68.53
rwrist -11.3484
rhand -44.3755 -14.1059
rfingers 7.12502
rthumb -17.1826 -43.3662
lclavicle -3.1408e-014 -1.19271e-014
lhumerus 21.3866 1.78796 104.653
lradius 36.1752
lwrist 63.8087
lhand -16.8356 64.7234
lfingers 7.12502
lthumb 9.39399 -94.4941
rfemur -25.5525 5.14363 9.01156
rtibia 42.5242
rfoot -21.5872 -13.6292
rtoes -21.5241
lfemur -31.8039 4.04988 -5.99405
ltibia 33.4798
lfoot -16.9164 9.91809
ltoes -25.9294
728
root -1.56966 16.893 -3.08186 14.8915 10.3516 359.662
lowerback -0.0845781 -4.59382 -4.73428
upperback -1.47106 -6.15771 0.52185
thorax -0.913483 -3.03083 3.18583
lowerneck -12.7298 0.21564 -1.77537
upperneck 24.3082 1.67801 -3.7297
head 9.83413 0.186111 -0.798312
rclavicle -2.90226e-014 -1.03368e-014
rhumerus -38.3329 41.3424 -116.845
rradius 65.5734
rwrist -10.0761
rhand -43.4521 -14.1249
rfingers 7.12502
rthumb -16.2937 -43.4603
lclavicle -2.90226e-014 -1.03368e-014
lhumerus 23.4602 2.66121 106.167
lradius 34.4167
lwrist 61.4894
lhand -16.0841 64.2558
lfingers 7.12502
lthumb 10.1191 -93.9925
rfemur -25.61 4.26641 9.92035
rtibia 42.6686
rfoot -22.6724 -15.1261
rtoes -22.0592
lfemur -32.4929 3.70123 -5.39299
ltibia 32.7022
lfoot -16.204 8.72877
ltoes -26.5277
729
root -1.70865 16.8537 -3.19696 14.9603 12.1308 359.683
lowerback -0.101618 -4.58756 -4.29373
upperback -1.20839 -6.13973 0.430809
thorax -0.689852 -3.03568 2.83624
lowerneck -13.1109 1.00662 -0.927522
upperneck 24.01 2.73774 -4.2802
head 9.83239 0.695596 -1.00158
rclavicle -1.2921e-014 -1.43125e-014
rhumerus -36.249 40.0183 -118.493
rradius 62.2703
rwrist -7.21303
rhand -42.1497 -14.2975
rfingers 7.12502
rthumb -15.0394 -43.7313
lclavicle -1.2921e-014 -1.43125e-014
lhumerus 25.3987 2.80874 106.884
lradius 33.1242
lwrist 60.0468
lhand -15.9525 63.8854
lfingers 7.12502
lthumb 10.246 -93.6159
rfemur -25.6843 2.96718 10.6858
rtibia 42.6827
rfoot -23.6268 -16.066
rtoes -22.7168
lfemur -33.0708 3.15555 -4.81646
ltibia 31.5386
lfoot -15.2934 7.76755
ltoes -28.591
730
root -1.84859 16.8054 -3.31529 15.1862 14.6145 359.796
lowerback 0.106142 -4.79018 -4.17913
upperback -1.19146 -6.41636 0.852096
thorax -0.730618 -3.17397 3.21716
lowerneck -13.4494 1.73349 -0.485527
upperneck 23.9244 3.87601 -5.09155
head 9.91916 1.16954 -1.21615
rclavicle -1.11319e-014 1.59028e-014
rhumerus -35.7094 40.3544 -120.067
rradius 59.6903
rwrist -6.30938
rhand -42.1234 -14.0768
rfingers 7.12502
rthumb -15.014 -43.5124
lclavicle -1.11319e-014 1.59028e-014
lhumerus 27.065 3.4157 108.134
lradius 32.2047
lwrist 58.7355
lhand -15.5074 63.4271
lfingers 7.12502
lthumb 10.6753 -93.1359
rfemur -25.6415 0.885711 11.3536
rtibia 42.584
rfoot -24.7469 -16.5347
rtoes -22.8555
lfemur -34.1878 1.62182 -4.20034
ltibia 30.6285
lfoot -14.293 7.21125
ltoes -31.6306
731
root -2.00048 16.7561 -3.42036 15.1421 17.5367 359.872
lowerback 0.464403 -5.02537 -3.94788
upperback -1.11569 -6.73887 1.30434
thorax -0.796945 -3.33663 3.57815
lowerneck -13.5607 2.33264 -0.11447
upperneck 23.7813 4.84275 -5.90207
head 9.95092 1.5628 -1.43831
rclavicle -4.67144e-015 -1.70955e-014
rhumerus -35.0398 40.6926 -121.369
rradius 57.065
rwrist -5.55611
rhand -41.1801 -13.432
rfingers 7.12502
rthumb -14.1052 -42.9332
lclavicle -4.67144e-015 -1.70955e-014
lhumerus 28.6134 3.80716 109.399
lradius 31.3635
lwrist 57.5068
lhand -14.5075 63.3729
lfingers 7.12502
lthumb 11.6397 -93.0296
rfemur -25.0676 -1.41831 12.151
rtibia 42.3152
rfoot -26.1546 -16.7664
rtoes -22.064
lfemur -35.4178 -0.105204 -3.47234
ltibia 30.1019
lfoot -13.4856 6.30098
ltoes -33.8724
732
root -2.18469 16.7181 -3.51126 14.7333 19.6379 359.708
lowerback 1.06677 -4.83648 -4.05409
upperback -0.998126 -6.50582 1.79474
thorax -0.964929 -3.21667 4.19128
lowerneck -13.4092 2.76839 0.142642
upperneck 23.4867 5.5384 -6.51354
head 9.86978 1.85443 -1.60595
rclavicle -5.97348e-014 2.34566e-014
rhumerus -33.5994 40.0637 -122.155
rradius 54.1263
rwrist -3.84578
rhand -39.7003 -12.5391
rfingers 7.12502
rthumb -12.6788 -42.1343
lclavicle -5.97348e-014 2.34566e-014
lhumerus 29.6884 3.23166 109.986
lradius 31.1885
lwrist 56.7264
lhand -13.091 63.2031
lfingers 7.12502
lthumb 13.0055 -92.7777
rfemur -24.5559 -2.72672 13.2392
rtibia 42.1728
rfoot -27.3679 -17.4421
rtoes -22.3213
lfemur -36.0613 -0.668467 -2.60988
ltibia 29.5598
lfoot -12.9095 5.05174
ltoes -35.0698
733
root -2.37704 16.6813 -3.59048 14.3693 21.8286 359.578
lowerback 1.50692 -4.61074 -4.13365
upperback -0.899037 -6.21653 2.24314
thorax -1.08015 -3.06965 4.7324
lowerneck -13.3858 3.01557 0.422381
upperneck 23.4558 5.96517 -7.0388
head 9.89954 2.0246 -1.78181
rclavicle 1.19271e-014 5.56597e-015
rhumerus -33.2773 39.6248 -122.64
rradius 52.5427
rwrist -1.54265
rhand -38.4672 -12.4488
rfingers 7.12502
rthumb -11.4899 -42.1139
lclavicle 1.19271e-014 5.56597e-015
lhumerus 30.6904 2.26683 110.16
lradius 31.1001
lwrist 56.2823
lhand -12.6508 62.1409
lfingers 7.12502
lthumb 13.4298 -91.6879
rfemur -24.1525 -3.83198 14.3794
rtibia 42.0171
rfoot -28.2154 -18.595
rtoes -22.6504
lfemur -36.65 -1.53955 -1.68457
ltibia 28.7269
lfoot -12.1882 3.94793
ltoes -35.4137
734
root -2.55807 16.6394 -3.6657 14.2003 24.7215 359.538
lowerback 1.9035 -4.56167 -3.94755
upperback -1.03772 -6.1537 2.73354
thorax -1.4176 -3.02696 5.18054
lowerneck -13.0904 3.15404 0.55021
upperneck 23.4681 6.25431 -7.47803
head 9.8818 2.13437 -1.92326
rclavicle 6.88727e-014 1.23743e-014
rhumerus -32.4704 38.5587 -123.105
rradius 50.0615
rwrist 1.13923
rhand -37.241 -12.0944
rfingers 7.12502
rthumb -10.3072 -41.8219
lclavicle 6.88727e-014 1.23743e-014
lhumerus 31.3561 1.03536 109.946
lradius 31.2658
lwrist 56.6672
lhand -12.7896 61.1339
lfingers 7.12502
lthumb 13.296 -90.6897
rfemur -23.9173 -5.33661 15.4881
rtibia 42.0238
rfoot -28.7353 -19.8249
rtoes -22.3075
lfemur -37.6107 -3.34839 -0.685884
ltibia 27.6336
lfoot -11.1574 3.00964
ltoes -35.4165
735
root -2.73795 16.5974 -3.73834 14.0655 27.7156 359.52
lowerback 1.97674 -4.46703 -3.47042
upperback -1.02397 -6.00987 3.02117
thorax -1.47853 -2.95723 5.21816
lowerneck -12.8051 3.17703 0.940181
upperneck 23.2682 6.3217 -7.99823
head 9.7906 2.16335 -2.16333
rclavicle -2.87244e-014 9.93923e-015
rhumerus -31.3078 37.8548 -123.468
rradius 47.7085
rwrist 3.1539
rhand -36.1928 -11.6527
rfingers 7.12502
rthumb -9.29586 -41.4277
lclavicle -2.87244e-014 9.93923e-015
lhumerus 32.1424 -0.627796 109.296
lradius 31.6749
lwrist 57.5614
lhand -12.7606 60.9006
lfingers 7.12502
lthumb 13.324 -90.4546
rfemur -24.2485 -6.96105 16.5982
rtibia 42.8721
rfoot -29.202 -20.9761
rtoes -21.3693
lfemur -38.6202 -5.35159 0.324054
ltibia 26.405
lfoot -10.0026 2.03968
ltoes -34.9634
736
root -2.92277 16.5577 -3.79833 13.7242 30.5174 359.479
lowerback 2.14053 -4.28082 -3.1651
upperback -0.909237 -5.74823 3.3792
thorax -1.47455 -2.82988 5.42497
lowerneck -12.5083 3.14937 1.28112
upperneck 22.8033 6.35758 -8.73127
head 9.60966 2.16029 -2.46962
rclavicle -9.83984e-015 1.31198e-014
rhumerus -31.0413 39.2581 -123.859
rradius 46.6505
rwrist 3.29069
rhand -35.4919 -11.727
rfingers 7.12502
rthumb -8.61946 -41.5311
lclavicle -9.83984e-015 1.31198e-014
lhumerus 32.9647 -2.23668 108.575
lradius 32.3769
lwrist 58.581
lhand -12.905 60.9672
lfingers 7.12502
lthumb 13.1847 -90.5303
rfemur -24.9146 -8.46163 17.7323
rtibia 44.5092
rfoot -29.9916 -22.0809
rtoes -19.2822
lfemur -39.3065 -7.24548 1.31653
ltibia 25.0805
lfoot -8.83122 0.977661
ltoes -33.7197
737
root -3.10486 16.5176 -3.84296 13.1482 33.276 359.417
lowerback 2.36805 -4.01935 -2.80261
upperback -0.695568 -5.38499 3.67119
thorax -1.42837 -2.65433 5.52899
lowerneck -12.7461 3.05946 1.1032
upperneck 23.0202 6.30522 -8.69229
head 9.7229 2.11892 -2.43133
rclavicle -7.16619e-014 2.74323e-014
rhumerus -30.9674 40.7744 -124.159
rradius 46.1067
rwrist 2.94312
rhand -34.8749 -11.7404
rfingers 7.12502
rthumb -8.02403 -41.5681
lclavicle -7.16619e-014 2.74323e-014
lhumerus 33.7433 -3.93853 107.675
lradius 33.167
lwrist 59.4293
lhand -12.8143 60.9754
lfingers 7.12502
lthumb 13.2722 -90.5328
rfemur -25.2869 -10.0065 18.8149
rtibia 45.9822
rfoot -30.7121 -23.3204
rtoes -17.7357
lfemur -39.6983 -8.98844 2.15846
ltibia 23.6899
lfoot -7.60938 -0.175954
ltoes -32.6196
